<?xml version="1.0" encoding="utf-8"?>
<!-- Generator: Adobe Illustrator 22.1.0, SVG Export Plug-In . SVG Version: 6.00 Build 0)  -->
<svg version="1.1" xmlns="http://www.w3.org/2000/svg" xmlns:xlink="http://www.w3.org/1999/xlink" x="0px" y="0px"
	 viewBox="0 0 18 18" style="enable-background:new 0 0 18 18;" xml:space="preserve">
<style type="text/css">
	.icon-fill{fill:#FFFFFF;}
</style>
<title>Contact_Phone</title>
<path class="icon-fill" d="M14.5,10.7c-0.4-0.3-0.9-0.3-1.4-0.2c-0.3,0.1-0.6,0.4-0.9,0.7c-0.5,0.6-1.2,1-2,0.9c-0.7-0.1-1.3-0.5-1.7-1
	L6.9,9.4C6.4,9,6,8.4,5.9,7.7c-0.1-0.8,0.3-1.5,0.9-2c0.3-0.2,0.5-0.5,0.7-0.9c0.1-0.5,0-1-0.2-1.4c-0.8-1-1.5-2-2.3-3
	C4.6,0.1,4-0.1,3.5,0.1C3,0.2,2.6,0.5,2.3,0.8C0.7,2.2-0.2,4.2,0.1,6.3C0.4,8.2,1.7,10,3.7,12L6,14.3c2,2,3.8,3.3,5.6,3.6
	c2.1,0.2,4.2-0.6,5.5-2.3c0.3-0.3,0.6-0.7,0.8-1.1c0.2-0.5,0-1.1-0.4-1.5C16.5,12.2,15.5,11.4,14.5,10.7z"/>
</svg>
