<svg id="4c5d9748-2479-4b00-aa88-87b1c813ffab" data-name="Layer 1" xmlns="http://www.w3.org/2000/svg" viewBox="0 0 18 18"><title>Contact_Fax</title><g id="1e39baed-e513-4afb-9797-28b37d24899b" data-name="Pages"><g id="9feed027-f35b-4fa6-8cbf-98018e15f8fd" data-name="Contact-open"><g id="20363533-5475-40c6-8529-d3949ef81c67" data-name="Group"><path id="d4b74d8d-7c3a-49a8-aa1d-5e09c704920a" data-name="Fill-1" d="M16.88,16.05a.85.85,0,0,1-.85.83H2a.85.85,0,0,1-.85-.83V11A.85.85,0,0,1,2,10.12H16a.85.85,0,0,1,.85.83ZM4.5,1.27a.14.14,0,0,1,.12-.15h8.76a.14.14,0,0,1,.12.15V9h-9ZM16,9H14.62V1.27A1.25,1.25,0,0,0,13.38,0H4.62A1.25,1.25,0,0,0,3.38,1.27V9H2A2,2,0,0,0,0,11v5.1A2,2,0,0,0,2,18H16a2,2,0,0,0,2-1.95V11A2,2,0,0,0,16,9Z" style="fill:#fff"/><path id="37a4ad6e-50c6-4bba-9762-a4f43f92ff85" data-name="Fill-3" d="M8.52,11C4.63,11,3,11.89,3,12.63A2.41,2.41,0,0,0,3.34,14H5.39a3.72,3.72,0,0,0,.36-1,6.92,6.92,0,0,1,2.77-.57,6.55,6.55,0,0,1,2.73.57,3.72,3.72,0,0,0,.36,1h2.05A2.41,2.41,0,0,0,14,12.63C14,11.89,12.42,11,8.52,11" style="fill:#fff"/><path id="a2637c6a-1236-41a1-9328-d24ca18100d5" data-name="Fill-5" d="M11.45,3H6.55A.52.52,0,0,0,6,3.5a.52.52,0,0,0,.55.5h4.9A.52.52,0,0,0,12,3.5a.52.52,0,0,0-.55-.5" style="fill:#fff"/><path id="0bc7c9e0-1b9b-417f-b74c-5064401080cb" data-name="Fill-7" d="M11.45,5H6.55a.5.5,0,1,0,0,1h4.9a.5.5,0,1,0,0-1" style="fill:#fff"/></g></g></g></svg>