<?xml version="1.0" encoding="utf-8"?>
<!-- Generator: Adobe Illustrator 22.1.0, SVG Export Plug-In . SVG Version: 6.00 Build 0)  -->
<svg version="1.1" xmlns="http://www.w3.org/2000/svg" xmlns:xlink="http://www.w3.org/1999/xlink" x="0px" y="0px"
	 viewBox="0 0 18 18" style="enable-background:new 0 0 18 18;" xml:space="preserve">
<style type="text/css">
	.icon-fill{fill:#FFFFFF;}
</style>
<title>Contact_Fax</title>
<path class="icon-fill" d="M16.9,16c0,0.5-0.4,0.8-0.9,0.8H2c-0.5,0-0.8-0.4-0.9-0.8v-5c0-0.5,0.4-0.9,0.8-0.9c0,0,0,0,0,0h14
	c0.5,0,0.8,0.4,0.9,0.8L16.9,16z M4.5,1.3c0-0.1,0-0.1,0.1-0.1h8.8c0.1,0,0.1,0.1,0.1,0.1V9h-9V1.3z M16,9h-1.4V1.3
	c0-0.7-0.5-1.3-1.2-1.3c0,0,0,0,0,0H4.6C3.9,0,3.4,0.6,3.4,1.3c0,0,0,0,0,0V9H2c-1.1,0-2,0.9-2,2v5.1C0.1,17.2,0.9,18,2,18h14
	c1.1,0,2-0.9,2-2v-5C18,9.9,17.1,9,16,9z"/>
<path class="icon-fill" d="M9,11.5c-3.9,0-5.5,0.9-5.5,1.6c0,0.5,0.1,1,0.3,1.4h2c0.2-0.3,0.3-0.7,0.4-1c0.9-0.4,1.8-0.6,2.8-0.6
	c0.9,0,1.9,0.2,2.7,0.6c0.1,0.3,0.2,0.7,0.4,1h2.1c0.2-0.4,0.4-0.9,0.3-1.4C14.5,12.4,12.9,11.5,9,11.5"/>
<path class="icon-fill" d="M11.4,3H6.6C6.3,3,6,3.2,6,3.5c0,0,0,0,0,0C6,3.8,6.3,4,6.5,4c0,0,0,0,0,0h4.9C11.7,4,12,3.8,12,3.5
	c0,0,0,0,0,0C12,3.2,11.7,3,11.4,3C11.5,3,11.5,3,11.4,3"/>
<path class="icon-fill" d="M11.4,5H6.6C6.3,5,6.1,5.2,6.1,5.5S6.3,6,6.6,6h4.9C11.7,6,12,5.8,12,5.5S11.7,5,11.4,5"/>
</svg>
