<svg id="83913f4c-a967-4153-b3d8-9e5efea8d72e" data-name="Layer 1" xmlns="http://www.w3.org/2000/svg" viewBox="0 0 18 17.99"><title>Contact_Phone</title><g id="773af4fe-105a-4665-b2de-104a709530c8" data-name="Pages"><g id="e9d511e5-2f7a-4fff-9de3-8915390d922d" data-name="Contact-open"><path id="2eebc023-dc88-4078-9519-3d28a30af615" data-name="Fill-1" d="M14.53,10.7a1.79,1.79,0,0,0-1.4-.23,2,2,0,0,0-.87.67,2.25,2.25,0,0,1-2,.93,3,3,0,0,1-1.74-1L6.88,9.44a3,3,0,0,1-1-1.74,2.25,2.25,0,0,1,.93-2,2,2,0,0,0,.67-.87,1.79,1.79,0,0,0-.23-1.4c-.75-1-1.51-2-2.28-3A1.56,1.56,0,0,0,3.47.06,2.84,2.84,0,0,0,2.33.83,6.23,6.23,0,0,0,.07,6.34C.39,8.19,1.69,10,3.67,12L6,14.33c2,2,3.78,3.28,5.63,3.6a6.36,6.36,0,0,0,5.51-2.26,2.84,2.84,0,0,0,.77-1.14A1.56,1.56,0,0,0,17.51,13C16.54,12.21,15.52,11.45,14.53,10.7Z" transform="translate(0 0)" style="fill:#fff"/></g></g></svg>