<svg id="b65c9f1b-511c-405d-8830-37612cf8f275" data-name="Layer 1" xmlns="http://www.w3.org/2000/svg" viewBox="0 0 25 25"><title>drref</title><g id="74b6fdfd-e520-49d3-b918-1d21843f4657" data-name="Pages"><g id="10ee6705-1bc2-4f77-b433-74da7340f5dd" data-name="Home"><g id="eac71aff-746a-46e8-8d3f-dce1daf698e4" data-name="Group-7"><circle id="4d25d427-9829-4aa1-a756-b61bce789108" data-name="Path" cx="12.5" cy="12.5" r="12.5" style="fill:#fff"/><g id="f9d77df0-8c1e-4305-878b-15f7c7ce4723" data-name="Group-5"><path id="a3f0b6e8-01f9-4342-8693-6f5ade05307d" data-name="Fill-3" d="M19,15.65s0-.16,0-.18a3.88,3.88,0,0,0-.25-1.07,5.21,5.21,0,0,0-2.53-2.55,5.76,5.76,0,0,1,.06,1.1c-.05.6-.1,1-.15,1.28a1.85,1.85,0,0,1,.83.85,4.08,4.08,0,0,1,.11,2.52.78.78,0,0,1,.17.48.65.65,0,1,1-1.3,0,.7.7,0,0,1,.52-.7,3.21,3.21,0,0,0-.07-2,1.18,1.18,0,0,0-.53-.55h0l-.29-.11a1.16,1.16,0,0,0-1,.17,3.14,3.14,0,0,0-.91,1.72.73.73,0,0,1,.25.55.68.68,0,0,1-.66.71.68.68,0,0,1-.65-.71.71.71,0,0,1,.43-.66,3.84,3.84,0,0,1,1.19-2.19,1.67,1.67,0,0,1,1.34-.3c0-.22.08-.57.12-1.13a4.63,4.63,0,0,0-.13-1.35l-.09,0-.53-.17a8.75,8.75,0,0,0-4.76,0l-.53.17h0a6.76,6.76,0,0,0-.33,2.21,5.5,5.5,0,0,0,.11,1.1h.17a1.42,1.42,0,0,1,0,2.83,1.36,1.36,0,0,1-1.3-1.42,1.42,1.42,0,0,1,.54-1.14,5.75,5.75,0,0,1-.15-1.36,8.18,8.18,0,0,1,.2-1.89A5.17,5.17,0,0,0,6.27,14.4,3.57,3.57,0,0,0,6,15.47s0,.14,0,.18v3.24A1.07,1.07,0,0,0,7,20H18a1.07,1.07,0,0,0,1-1.11V15.65" style="fill:#020aa3"/><path id="0ee287ee-aa7f-4bcc-aadd-d99e674b7de6" data-name="Fill-1" d="M12.5,3A3.5,3.5,0,1,0,16,6.5,3.5,3.5,0,0,0,12.5,3" style="fill:#020aa3"/></g></g></g></g></svg>