<?xml version="1.0" encoding="utf-8"?>
<!-- Generator: Adobe Illustrator 22.1.0, SVG Export Plug-In . SVG Version: 6.00 Build 0)  -->
<svg version="1.1" id="Layer_1" xmlns="http://www.w3.org/2000/svg" xmlns:xlink="http://www.w3.org/1999/xlink" x="0px" y="0px"
	 viewBox="0 0 1617 1617" style="enable-background:new 0 0 1617 1617;" xml:space="preserve">
<style type="text/css">
	.elate-logo-1 {
    fill: url(#rad-grad-1) #04206A;
  }
	.elate-logo-2 {
    fill:#FFFFFF;
  }
</style>
<title>elate-logo</title>
<radialGradient id="rad-grad-1" cx="808.5" cy="809.5" r="806.15" gradientTransform="matrix(1 0 0 -1 -1.86 1616.14)" gradientUnits="userSpaceOnUse">
	<stop  offset="0" style="stop-color:#08358E"/>
	<stop  offset="0.2888" style="stop-color:#072E83"/>
	<stop  offset="0.398" style="stop-color:#062B7D"/>
	<stop  offset="0.6022" style="stop-color:#191F80"/>
	<stop  offset="0.8737" style="stop-color:#04206A"/>
</radialGradient>
<circle class="elate-logo-1" cx="808.5" cy="808.5" r="808"/>
<path class="elate-logo-2" d="M404.6,635h-61.8v33.3h58.5v44.1h-58.5V747h61.8v44.1H290.9V591h113.7V635z"/>
<path class="elate-logo-2" d="M559.4,591v156h62.4v44.1H507.5V591H559.4z"/>
<path class="elate-logo-2" d="M1076.8,635v156h-51.9V635h-42.6v-44h137.1v44.1L1076.8,635z"/>
<path class="elate-logo-2" d="M1326.1,635h-61.8v33.3h58.5v44.1h-58.5V747h61.8v44.1h-113.7V591h113.7V635z"/>
<polygon class="elate-logo-2" points="757.8,782.4 803.7,651.3 853.9,791 908.2,791 833,591 776.2,591 699.5,791 754.3,791 "/>
<g>
	<g>
		<path class="elate-logo-2" d="M410.5,990.3c-8.5,8.1-20.5,12.4-32.9,12.4s-24.4-4.2-32.9-12.4c-17.2-16.8-17.5-44.5-0.7-61.7
			c0.2-0.2,0.5-0.5,0.7-0.7c8.5-8.1,20.5-12.4,32.9-12.4s24.4,4.2,32.9,12.4c17.2,16.8,17.5,44.4,0.7,61.7
			C411,989.9,410.7,990.1,410.5,990.3L410.5,990.3z M360.8,943.2c-4.3,4.3-6.7,10.2-6.6,16.4c0,5.9,2.4,11.5,6.6,15.5
			c4.5,4.4,10.6,6.8,16.9,6.6c7.4,0,12.9-2.6,16.8-6.5c4.3-4.2,6.7-10,6.8-16c0-6-2.5-11.8-6.8-16c-4.6-4.2-10.5-6.6-16.8-6.6
			C371.4,936.5,365.3,938.9,360.8,943.2L360.8,943.2z"/>
		<path class="elate-logo-2" d="M471.1,917.5c6.2,0,14.2,1,20.4,7.4c4.8,4.9,7.1,12.1,7.1,18.8c0,7.1-2.5,13.4-6.6,17.4
			c-3.2,3-7.2,4.9-11.5,5.8l26.1,34.1h-26.9l-20.8-32v32h-21.6v-83.4H471.1z M459,954.8h4.1c3.2,0,7.9-0.9,10.5-3.4
			c1.8-1.9,2.7-4.4,2.8-7c0-2.6-1-5.1-2.9-7c-2-2-5.6-3.2-10.4-3.2H459V954.8z"/>
		<path class="elate-logo-2" d="M544.1,935.8v65h-21.6v-65h-17.8v-18.4h57.1v18.4L544.1,935.8z"/>
		<path class="elate-logo-2" d="M593.1,948.6h31.2v-31.1h21.8v83.4h-21.8v-33.7h-31.2v33.8h-21.6v-83.4h21.6V948.6z"/>
		<path class="elate-logo-2" d="M738.8,990.3c-8.5,8.1-20.5,12.4-32.9,12.4s-24.4-4.3-32.9-12.4c-17.2-16.9-17.5-44.5-0.7-61.7
			c0.2-0.2,0.4-0.4,0.7-0.7c8.5-8.1,20.5-12.4,32.9-12.4s24.4,4.2,32.9,12.4c17.2,16.8,17.5,44.4,0.7,61.7
			C739.2,989.9,739,990.1,738.8,990.3L738.8,990.3z M689,943.2c-4.3,4.3-6.7,10.2-6.6,16.4c0,5.9,2.4,11.5,6.6,15.5
			c4.5,4.4,10.6,6.8,16.9,6.6c7.4,0,12.9-2.6,16.8-6.5c4.3-4.2,6.7-10,6.8-16c0-6-2.5-11.8-6.8-16c-4.6-4.2-10.5-6.6-16.8-6.6
			C699.6,936.5,693.5,938.9,689,943.2z"/>
		<path class="elate-logo-2" d="M765.6,1000.8v-83.4H794c8.4,0,22.4,1.1,33.1,11.5c9.8,9.4,11.6,21.4,11.6,30.4c0,11-2.8,20.8-10.9,28.9
			c-8.6,8.2-20.1,12.8-32,12.6L765.6,1000.8z M787.2,982.5h4.4c5.2,0,12.6-0.5,18.2-6c2.8-2.6,6.4-7.9,6.4-17.1
			c0-7.8-2.4-14.4-6.5-18.2c-5.1-4.8-11.9-5.2-17.2-5.2h-5.2V982.5z"/>
		<path class="elate-logo-2" d="M927.6,990.3c-8.5,8.1-20.5,12.4-32.9,12.4s-24.4-4.2-32.9-12.4c-17.2-16.8-17.5-44.4-0.7-61.7
			c0.2-0.2,0.5-0.5,0.7-0.7c8.5-8.1,20.5-12.4,32.9-12.4s24.4,4.2,32.9,12.4c17.2,16.8,17.5,44.5,0.7,61.7
			C928.1,989.9,927.9,990.1,927.6,990.3z M877.9,943.2c-4.3,4.3-6.7,10.2-6.6,16.4c0,5.9,2.4,11.5,6.6,15.5
			c4.5,4.4,10.6,6.8,16.9,6.6c7.4,0,12.9-2.6,16.8-6.5c4.3-4.2,6.7-10,6.8-16c0-6-2.4-11.8-6.8-16c-4.6-4.2-10.5-6.6-16.8-6.6
			C888.5,936.5,882.4,938.9,877.9,943.2L877.9,943.2z"/>
		<path class="elate-logo-2" d="M954.5,1000.8v-83.4h21.6l39.9,51v-51h21.6v83.4H1016l-39.9-51v51L954.5,1000.8z"/>
		<path class="elate-logo-2" d="M1086.6,935.8v65H1065v-65h-17.8v-18.4h57.1v18.4L1086.6,935.8z"/>
		<path class="elate-logo-2" d="M1135.6,917.5v83.4H1114v-83.4H1135.6z"/>
		<path class="elate-logo-2" d="M1213,998.6c-8.6,3.1-13.4,4.1-18.8,4.1c-14.5,0-25.4-5.8-32.2-12.5c-8-8.1-12.5-19-12.6-30.4
			c0-24.2,19.6-43.8,43.7-43.8c0.1,0,0.3,0,0.4,0c4,0,10.5,0.6,19.5,4.2v25.9c-7-8.6-15.2-9.1-18.9-9.1c-5.5-0.2-10.9,1.8-15,5.5
			c-4.7,4.5-7.3,10.7-7.2,17.1c0,6.1,2.4,11.9,6.8,16.2c4.3,3.7,9.8,5.8,15.5,5.8c3.2,0,11.2-0.4,18.9-8.8V998.6z"/>
		<path class="elate-logo-2" d="M1232.2,975.8c4.6,4.4,11.6,8.5,19.1,8.5c4.4,0,7-1.4,8.4-2.9c1.4-1.4,2.1-3.3,2.1-5.2c0-1.9-0.9-3.8-2.4-5
			c-2.1-1.9-5.4-2.8-10.8-4.4l-5.6-1.8c-3.5-1.1-8.6-3-12-6.8c-4.2-4.6-4.8-10.5-4.8-14.8c0-10.2,4-16.5,7.6-20.1
			c4.2-4.2,11.2-7.9,21.4-7.9c8.2,0,17.9,2.6,25.8,6.8l-8.6,16.9c-6.5-5.1-11.4-5.6-14.2-5.6c-2.6-0.1-5.2,0.8-7.1,2.5
			c-1.3,1.1-2.1,2.8-2.1,4.5c-0.1,1.3,0.3,2.7,1.1,3.8c0.6,0.8,2.1,2.2,7.2,3.8l6.6,2c5.2,1.6,10.8,3.5,15.1,8.2
			c4.2,4.5,5.4,9.1,5.4,14.9c0,7.6-1.9,15-7.9,21c-7.1,7.1-15.8,8.5-24.6,8.5c-5.6,0.1-11.1-0.8-16.4-2.8c-4.5-1.7-8.7-3.9-12.6-6.6
			L1232.2,975.8z"/>
	</g>
</g>
</svg>
