<?xml version="1.0" encoding="utf-8"?>
<!-- Generator: Adobe Illustrator 22.1.0, SVG Export Plug-In . SVG Version: 6.00 Build 0) -->
<svg version="1.1" id="cc66cb7f-7586-4a7c-be35-5524c1b34f17" xmlns="http://www.w3.org/2000/svg" xmlns:xlink="http://www.w3.org/1999/xlink" x="0px" y="0px" viewBox="0 0 30 30" style="enable-background:new 0 0 30 30;" xml:space="preserve">
  <style type="text/css">
    .icon-fill {
      fill: #FFFFFF;
    }
  </style>
  <path
    class="icon-fill"
    d="M17.4,30V16.3H19c0.9,0,1.7,0,2.6,0c0.2,0,0.3-0.2,0.4-0.3
					c0.2-1.7,0.4-3.3,0.7-5.1h-5.2c0-1.5-0.1-2.9,0-4.3c0.1-1,0.7-1.5,1.7-1.6C20,5,20.8,5,21.6,5h1.1V0.2c-0.3,0-0.5-0.1-0.8-0.1
					c-1.9-0.3-3.9-0.2-5.8,0.2c-2.4,0.7-4.2,2.9-4.3,5.4c-0.1,1.5-0.1,3.1-0.1,4.6V11H7.2v5.3h4.5V30c-0.1,0-0.2,0-0.4,0"/>
</svg>
