<svg id="fde269bd-a458-44fc-b25f-b9a1b5197a56" data-name="Layer 1" xmlns="http://www.w3.org/2000/svg" viewBox="0 0 38 19"><title>hamburger</title><g id="0ca545d6-8095-4cda-9b78-f81a6fbdb755" data-name="Pages"><g id="6daf6d7e-49d2-4914-a396-35e2805f5329" data-name="Home"><g id="0fb65e99-2e01-4bf9-b9c2-60e6e8577a00" data-name="hamburger"><path id="272c1d5b-a79b-4fd7-ad33-10e26a62e1db" data-name="white2" d="M2,10H36a2,2,0,0,1,2,2h0a2,2,0,0,1-2,2H2a2,2,0,0,1-2-2H0A2,2,0,0,1,2,10Z" style="fill:#020aa3"/><path id="53092c15-4275-4d2a-b65a-dd323c8361cd" data-name="white1" d="M2,0H36a2,2,0,0,1,2,2h0a2,2,0,0,1-2,2H2A2,2,0,0,1,0,2H0A2,2,0,0,1,2,0Z" style="fill:#020aa3"/><path id="8cd5e540-9e46-40a3-a553-f643d95a75f7" data-name="blue2" d="M2,15H36a2,2,0,0,1,2,2h0a2,2,0,0,1-2,2H2a2,2,0,0,1-2-2H0A2,2,0,0,1,2,15Z" style="fill:#fff"/><path id="d2ae2167-4e24-47cc-8348-c3ce1516f013" data-name="blue1" d="M2,5H36a2,2,0,0,1,2,2h0a2,2,0,0,1-2,2H2A2,2,0,0,1,0,7H0A2,2,0,0,1,2,5Z" style="fill:#fff"/></g></g></g></svg>