<?xml version="1.0" encoding="utf-8"?>
<!-- Generator: Adobe Illustrator 22.1.0, SVG Export Plug-In . SVG Version: 6.00 Build 0)  -->
<svg version="1.1" xmlns="http://www.w3.org/2000/svg" xmlns:xlink="http://www.w3.org/1999/xlink" x="0px" y="0px"
	 viewBox="0 0 29.4 29.4" style="enable-background:new 0 0 29.4 29.4;" xml:space="preserve">
<style type="text/css">
	.icon-fill{fill:#FFFFFF;}
</style>
<title>IG</title>
<path class="icon-fill" d="M21.1,29.4L8.1,29.3c-4.5,0-8.1-3.7-8.1-8.2l0.1-13C0.1,3.6,3.8,0,8.3,0l13,0.1c4.5,0.1,8.1,3.7,8.1,8.2
	l-0.1,13C29.2,25.8,25.6,29.4,21.1,29.4z M24,6.9c0-1.1-0.9-2-2-2.1c-1.1,0-2,0.9-2,2s0.9,2,2,2C23.1,8.9,24,8,24,6.9z M20.5,15.8
	c0-3-2.4-5.5-5.4-5.5c-3,0-5.5,2.4-5.5,5.4c0,3,2.4,5.5,5.4,5.5C18,21.2,20.5,18.8,20.5,15.8L20.5,15.8z"/>
</svg>
