<svg id="e9f6f4ce-f102-4544-aeef-084c4703a925" data-name="Layer 1" xmlns="http://www.w3.org/2000/svg" viewBox="0 0 29.4 29.4"><title>IG</title><g id="55965b9e-f3b2-484f-b7e4-d9cff0801dfd" data-name="Pages"><g id="9ea53cd5-6fd9-488f-804f-556901e03ea4" data-name="Home"><g id="4857db58-bc52-49b4-8ad5-a1bd3e65cd8d" data-name="Footer"><g id="5986fd89-0a54-4391-ad68-08adcda4a04c" data-name="Group-4"><g id="dba5f552-1080-49e2-862a-04e9fcd7f426" data-name="Group-3"><path id="7a468c21-2728-4957-8616-284b66cab617" data-name="Combined-Shape" d="M21.08,30,8.13,29.92A8.21,8.21,0,0,1,0,21.68L.08,8.73A8.21,8.21,0,0,1,8.32.6l13,.08A8.21,8.21,0,0,1,29.4,8.92l-.08,13A8.21,8.21,0,0,1,21.08,30ZM24,7.52a2.06,2.06,0,0,0-2-2.06,2,2,0,1,0,2,2.06Zm-3.47,8.84A5.46,5.46,0,1,0,15,21.78,5.46,5.46,0,0,0,20.49,16.36Z" transform="translate(0 -0.6)" style="fill:#fff"/></g></g></g></g></g></svg>