<?xml version="1.0" encoding="utf-8"?>
<!-- Generator: Adobe Illustrator 22.1.0, SVG Export Plug-In . SVG Version: 6.00 Build 0)  -->
<svg version="1.1" xmlns="http://www.w3.org/2000/svg" xmlns:xlink="http://www.w3.org/1999/xlink" x="0px" y="0px"
	 viewBox="0 0 40 40" style="enable-background:new 0 0 40 40;" xml:space="preserve">
<style type="text/css">
	.icon-fill{fill:#FFFFFF;}
</style>
<path class="icon-fill" d="M39.5,16.2c0-0.2-0.2-0.4-0.3-0.5l-7.5-4.6l-6.1-3.8l-5.2-3.2c-0.2-0.1-0.6-0.1-0.8,0L14,7.6V4.8
	C14,4.4,13.6,4,13.2,4c0,0,0,0,0,0H7.5C7.1,4,6.7,4.3,6.7,4.8c0,0,0,0,0,0v7.3l-5.9,3.7c-0.2,0.1-0.3,0.3-0.3,0.5
	c0,0.2,0,0.4,0.1,0.6L3.9,22c0.2,0.4,0.7,0.5,1,0.3c0,0,0,0,0,0L6.8,21v14.2c0,0.4,0.3,0.7,0.7,0.8h25.3c0.4,0,0.8-0.3,0.8-0.8
	c0,0,0,0,0,0v-14l1.6,1c0.3,0.2,0.8,0.1,1-0.2l3.2-5.2C39.5,16.6,39.5,16.4,39.5,16.2z"/>
</svg>
