<svg id="d81d1d92-ef72-409e-8993-2065209b04d7" data-name="Layer 1" xmlns="http://www.w3.org/2000/svg" viewBox="0 0 39 32"><title>nextdoor</title><g id="ddc243b4-45ab-4ed1-9bf2-d198fe0349aa" data-name="Pages"><g id="28151d56-f1d9-41ca-b781-c02cd66217e3" data-name="Home"><g id="e07cadbb-99a5-4a6a-81e7-961fba0002ab" data-name="Footer"><g id="e9de4694-311b-4880-abd6-70f48dffce29" data-name="Group-4"><g id="29c2a0cd-d1ca-4d36-b987-4d5b90c30982" data-name="nextdoor"><path id="e5d193ce-f617-4a22-ac50-df2541383bae" data-name="Shape" d="M39,12.21a.77.77,0,0,0-.34-.48L31.2,7.12,25.12,3.35,19.9.11a.77.77,0,0,0-.8,0L13.48,3.59V.77A.76.76,0,0,0,12.72,0H7a.76.76,0,0,0-.76.77V8.06L.36,11.73a.77.77,0,0,0-.34.48.74.74,0,0,0,.1.58L3.36,18a.75.75,0,0,0,1.05.24L6.28,17V31.23A.76.76,0,0,0,7,32H32.26a.76.76,0,0,0,.76-.77v-14l1.57,1a.75.75,0,0,0,1-.24l3.24-5.18A.74.74,0,0,0,39,12.21Z" transform="translate(0 0)" style="fill:#fff"/></g></g></g></g></g></svg>