<svg id="04ee5bca-fca2-4aa6-b197-8104e27cd5d7" data-name="Layer 1" xmlns="http://www.w3.org/2000/svg" viewBox="0 0 25 25"><title>phone</title><g id="19ad1167-4acb-4eaf-a0da-c64067d14846" data-name="Pages"><g id="2dada19c-49c4-4090-ada6-f9b9003ceb1a" data-name="Home"><g id="d462f4f5-887f-4eb6-8f5e-d23c092e9d18" data-name="Group"><circle id="1a774b08-0975-43dc-a536-3a9b4c43bd0f" data-name="Path" cx="12.5" cy="12.5" r="12.5" style="fill:#fff"/><path id="822eb90f-13d0-4dc6-9235-808d880f7d98" data-name="Fill-1" d="M17.93,13.52a1.58,1.58,0,0,0-1.25-.2,1.75,1.75,0,0,0-.77.59,2,2,0,0,1-1.74.83,2.6,2.6,0,0,1-1.55-.85l-1.5-1.5a2.61,2.61,0,0,1-.85-1.54,2,2,0,0,1,.83-1.74,1.8,1.8,0,0,0,.59-.77,1.56,1.56,0,0,0-.2-1.26c-.66-.87-1.34-1.78-2-2.64a1.4,1.4,0,0,0-1.38-.39,2.69,2.69,0,0,0-1,.68,5.57,5.57,0,0,0-2,4.91c.29,1.65,1.44,3.24,3.21,5l2.1,2.11c1.76,1.76,3.36,2.91,5,3.2a5.68,5.68,0,0,0,4.91-2,2.58,2.58,0,0,0,.68-1,1.37,1.37,0,0,0-.39-1.37C19.71,14.86,18.81,14.19,17.93,13.52Z" style="fill:#020aa3"/></g></g></g></svg>